<svg id="visual" viewBox="0 0 900 600" width="900" height="600" xmlns="http://www.w3.org/2000/svg" xmlns:xlink="http://www.w3.org/1999/xlink" version="1.1"><rect x="0" y="0" width="900" height="600" fill="#001220"></rect><defs><linearGradient id="grad1_0" x1="33.3%" y1="100%" x2="100%" y2="0%"><stop offset="20%" stop-color="#ddfa3c" stop-opacity="1"></stop><stop offset="80%" stop-color="#ddfa3c" stop-opacity="1"></stop></linearGradient></defs><defs><linearGradient id="grad1_1" x1="33.3%" y1="100%" x2="100%" y2="0%"><stop offset="20%" stop-color="#ddfa3c" stop-opacity="1"></stop><stop offset="80%" stop-color="#7fdf59" stop-opacity="1"></stop></linearGradient></defs><defs><linearGradient id="grad1_2" x1="33.3%" y1="100%" x2="100%" y2="0%"><stop offset="20%" stop-color="#00bf71" stop-opacity="1"></stop><stop offset="80%" stop-color="#7fdf59" stop-opacity="1"></stop></linearGradient></defs><defs><linearGradient id="grad1_3" x1="33.3%" y1="100%" x2="100%" y2="0%"><stop offset="20%" stop-color="#00bf71" stop-opacity="1"></stop><stop offset="80%" stop-color="#009b7e" stop-opacity="1"></stop></linearGradient></defs><defs><linearGradient id="grad1_4" x1="33.3%" y1="100%" x2="100%" y2="0%"><stop offset="20%" stop-color="#00777b" stop-opacity="1"></stop><stop offset="80%" stop-color="#009b7e" stop-opacity="1"></stop></linearGradient></defs><defs><linearGradient id="grad1_5" x1="33.3%" y1="100%" x2="100%" y2="0%"><stop offset="20%" stop-color="#00777b" stop-opacity="1"></stop><stop offset="80%" stop-color="#005367" stop-opacity="1"></stop></linearGradient></defs><defs><linearGradient id="grad1_6" x1="33.3%" y1="100%" x2="100%" y2="0%"><stop offset="20%" stop-color="#003147" stop-opacity="1"></stop><stop offset="80%" stop-color="#005367" stop-opacity="1"></stop></linearGradient></defs><defs><linearGradient id="grad1_7" x1="33.3%" y1="100%" x2="100%" y2="0%"><stop offset="20%" stop-color="#003147" stop-opacity="1"></stop><stop offset="80%" stop-color="#001220" stop-opacity="1"></stop></linearGradient></defs><defs><linearGradient id="grad2_0" x1="0%" y1="100%" x2="66.7%" y2="0%"><stop offset="20%" stop-color="#ddfa3c" stop-opacity="1"></stop><stop offset="80%" stop-color="#ddfa3c" stop-opacity="1"></stop></linearGradient></defs><defs><linearGradient id="grad2_1" x1="0%" y1="100%" x2="66.7%" y2="0%"><stop offset="20%" stop-color="#7fdf59" stop-opacity="1"></stop><stop offset="80%" stop-color="#ddfa3c" stop-opacity="1"></stop></linearGradient></defs><defs><linearGradient id="grad2_2" x1="0%" y1="100%" x2="66.7%" y2="0%"><stop offset="20%" stop-color="#7fdf59" stop-opacity="1"></stop><stop offset="80%" stop-color="#00bf71" stop-opacity="1"></stop></linearGradient></defs><defs><linearGradient id="grad2_3" x1="0%" y1="100%" x2="66.7%" y2="0%"><stop offset="20%" stop-color="#009b7e" stop-opacity="1"></stop><stop offset="80%" stop-color="#00bf71" stop-opacity="1"></stop></linearGradient></defs><defs><linearGradient id="grad2_4" x1="0%" y1="100%" x2="66.7%" y2="0%"><stop offset="20%" stop-color="#009b7e" stop-opacity="1"></stop><stop offset="80%" stop-color="#00777b" stop-opacity="1"></stop></linearGradient></defs><defs><linearGradient id="grad2_5" x1="0%" y1="100%" x2="66.7%" y2="0%"><stop offset="20%" stop-color="#005367" stop-opacity="1"></stop><stop offset="80%" stop-color="#00777b" stop-opacity="1"></stop></linearGradient></defs><defs><linearGradient id="grad2_6" x1="0%" y1="100%" x2="66.7%" y2="0%"><stop offset="20%" stop-color="#005367" stop-opacity="1"></stop><stop offset="80%" stop-color="#003147" stop-opacity="1"></stop></linearGradient></defs><defs><linearGradient id="grad2_7" x1="0%" y1="100%" x2="66.7%" y2="0%"><stop offset="20%" stop-color="#001220" stop-opacity="1"></stop><stop offset="80%" stop-color="#003147" stop-opacity="1"></stop></linearGradient></defs><g transform="translate(900, 600)"><path d="M-432.7 0C-418.1 -52.8 -403.6 -105.6 -385.3 -159.6C-366.9 -213.6 -344.8 -268.7 -305.9 -305.9C-267.1 -343.2 -211.4 -362.5 -157.7 -380.6C-103.9 -398.8 -51.9 -415.7 0 -432.7L0 0Z" fill="#002134"></path><path d="M-378.6 0C-365.9 -46.2 -353.1 -92.4 -337.1 -139.6C-321.1 -186.9 -301.7 -235.1 -267.7 -267.7C-233.7 -300.3 -185 -317.2 -138 -333.1C-90.9 -348.9 -45.4 -363.8 0 -378.6L0 0Z" fill="#004158"></path><path d="M-324.5 0C-313.6 -39.6 -302.7 -79.2 -288.9 -119.7C-275.2 -160.2 -258.6 -201.5 -229.5 -229.5C-200.3 -257.4 -158.6 -271.9 -118.2 -285.5C-77.9 -299.1 -39 -311.8 0 -324.5L0 0Z" fill="#006473"></path><path d="M-270.4 0C-261.3 -33 -252.2 -66 -240.8 -99.7C-229.3 -133.5 -215.5 -167.9 -191.2 -191.2C-166.9 -214.5 -132.2 -226.6 -98.5 -237.9C-64.9 -249.2 -32.5 -259.8 0 -270.4L0 0Z" fill="#00897e"></path><path d="M-216.3 0C-209.1 -26.4 -201.8 -52.8 -192.6 -79.8C-183.5 -106.8 -172.4 -134.4 -153 -153C-133.5 -171.6 -105.7 -181.3 -78.8 -190.3C-51.9 -199.4 -26 -207.9 0 -216.3L0 0Z" fill="#00ad79"></path><path d="M-162.2 0C-156.8 -19.8 -151.3 -39.6 -144.5 -59.8C-137.6 -80.1 -129.3 -100.8 -114.7 -114.7C-100.2 -128.7 -79.3 -135.9 -59.1 -142.7C-39 -149.5 -19.5 -155.9 0 -162.2L0 0Z" fill="#4fcf66"></path><path d="M-108.2 0C-104.5 -13.2 -100.9 -26.4 -96.3 -39.9C-91.7 -53.4 -86.2 -67.2 -76.5 -76.5C-66.8 -85.8 -52.9 -90.6 -39.4 -95.2C-26 -99.7 -13 -103.9 0 -108.2L0 0Z" fill="#aeee4b"></path><path d="M-54.1 0C-52.3 -6.6 -50.4 -13.2 -48.2 -19.9C-45.9 -26.7 -43.1 -33.6 -38.2 -38.2C-33.4 -42.9 -26.4 -45.3 -19.7 -47.6C-13 -49.8 -6.5 -52 0 -54.1L0 0Z" fill="#ddfa3c"></path></g><g transform="translate(0, 0)"><path d="M432.7 0C429.1 59.2 425.5 118.5 399.7 165.6C373.9 212.7 325.9 247.6 283.5 283.5C241.2 319.5 204.4 356.5 158 381.6C111.7 406.6 55.9 419.6 0 432.7L0 0Z" fill="#002134"></path><path d="M378.6 0C375.5 51.8 372.3 103.7 349.8 144.9C327.2 186.1 285.2 216.6 248.1 248.1C211 279.6 178.8 312 138.3 333.9C97.8 355.8 48.9 367.2 0 378.6L0 0Z" fill="#004158"></path><path d="M324.5 0C321.8 44.4 319.1 88.9 299.8 124.2C280.5 159.5 244.5 185.7 212.7 212.7C180.9 239.6 153.3 267.4 118.5 286.2C83.8 304.9 41.9 314.7 0 324.5L0 0Z" fill="#006473"></path><path d="M270.4 0C268.2 37 265.9 74.1 249.8 103.5C233.7 132.9 203.7 154.7 177.2 177.2C150.7 199.7 127.7 222.8 98.8 238.5C69.8 254.1 34.9 262.3 0 270.4L0 0Z" fill="#00897e"></path><path d="M216.3 0C214.5 29.6 212.8 59.2 199.9 82.8C187 106.3 163 123.8 141.8 141.8C120.6 159.8 102.2 178.3 79 190.8C55.9 203.3 27.9 209.8 0 216.3L0 0Z" fill="#00ad79"></path><path d="M162.2 0C160.9 22.2 159.6 44.4 149.9 62.1C140.2 79.7 122.2 92.8 106.3 106.3C90.4 119.8 76.6 133.7 59.3 143.1C41.9 152.5 20.9 157.4 0 162.2L0 0Z" fill="#4fcf66"></path><path d="M108.2 0C107.3 14.8 106.4 29.6 99.9 41.4C93.5 53.2 81.5 61.9 70.9 70.9C60.3 79.9 51.1 89.1 39.5 95.4C27.9 101.6 14 104.9 0 108.2L0 0Z" fill="#aeee4b"></path><path d="M54.1 0C53.6 7.4 53.2 14.8 50 20.7C46.7 26.6 40.7 30.9 35.4 35.4C30.1 39.9 25.5 44.6 19.8 47.7C14 50.8 7 52.5 0 54.1L0 0Z" fill="#ddfa3c"></path></g></svg>